<svg xmlns="http://www.w3.org/2000/svg" width="64" height="64" fill="none"><path fill="#27346A" d="M47.944 9.203c-2.491-2.84-6.995-4.057-12.757-4.057H18.465c-1.179 0-2.18.857-2.365 2.02L9.137 51.325c-.138.87.536 1.66 1.419 1.66h10.323l2.593-16.446-.08.515a2.387 2.387 0 0 1 2.356-2.02h4.905c9.638 0 17.184-3.914 19.388-15.238.066-.335.123-.66.172-.98-.279-.147-.279-.147 0 0 .656-4.185-.005-7.033-2.269-9.613Z"/><path fill="#6E6C71" d="M27.422 17.309c.276-.131.582-.204.904-.204h13.11c1.552 0 3 .101 4.323.314a18.21 18.21 0 0 1 2.145.478 11.845 11.845 0 0 1 2.309.92c.656-4.187-.005-7.034-2.269-9.614-2.493-2.84-6.995-4.057-12.757-4.057H18.464a2.394 2.394 0 0 0-2.364 2.02L9.137 51.323a1.435 1.435 0 0 0 1.417 1.66H20.88l5.38-34.111c.11-.7.559-1.273 1.163-1.563Z"/><path fill="#9B999D" d="M50.041 19.796c-2.204 11.322-9.75 15.238-19.388 15.238h-4.907a2.384 2.384 0 0 0-2.355 2.02l-3.225 20.448a1.256 1.256 0 0 0 1.24 1.452h8.703c1.03 0 1.906-.75 2.067-1.766l.085-.444L33.9 46.35l.106-.574a2.094 2.094 0 0 1 2.067-1.767h1.303c8.43 0 15.03-3.425 16.96-13.33.805-4.14.388-7.596-1.742-10.023-.646-.735-1.448-1.343-2.383-1.838-.05.32-.105.644-.17.979Z"/><path fill="#3E3D3F" d="M47.905 17.897a16.085 16.085 0 0 0-1.04-.267 19.606 19.606 0 0 0-1.105-.21c-1.324-.214-2.771-.315-4.325-.315H28.327a2.09 2.09 0 0 0-2.067 1.768L23.472 36.54l-.08.515a2.384 2.384 0 0 1 2.354-2.02h4.907c9.638 0 17.184-3.914 19.388-15.238.066-.335.12-.66.172-.98a11.9 11.9 0 0 0-1.813-.764 14.849 14.849 0 0 0-.496-.155Z"/></svg>