<svg xmlns="http://www.w3.org/2000/svg" width="64" height="64" fill="none"><path fill="#6E6C71" d="M58.626 14.988c-.602-2.802-2.11-4.646-4.895-5.543-2.784-.897-7.825-.54-11.345 2.011-3.23 2.338-5.576 6.52-6.509 9.378a.476.476 0 0 0 .122.49.483.483 0 0 0 .496.109c1.299-.456 2.619-.85 4.099-.773 1.808.096 2.954 1.438 3.002 3.03.036 1.172-.024 2.239-.434 3.316-1.294 3.435-3.328 6.763-5.731 9.673a8.72 8.72 0 0 1-1.206 1.185c-1.23.993-2.267.73-3.063-.623-.65-1.113-1.084-2.262-1.47-3.484-1.495-4.752-2.026-9.684-2.87-14.557-.398-2.334-.844-4.764-2.17-6.812-1.398-2.13-3.448-2.944-6.027-2.635-1.772.216-4.449 2.095-5.763 3.161 0 0-6.75 5.615-9.862 8.548l2.555 3.234s2.16-1.496 3.316-2.191c.688-.406 1.495-.49 2.074.024.543.467 1.158 1.078 1.483 1.689.688 1.28 1.35 2.621 1.772 3.997 1.591 5.304 3.075 10.619 4.558 15.96.76 2.728 1.675 5.29 3.375 7.612 2.328 3.185 4.774 3.915 8.549 2.575 3.062-1.09 5.618-3.137 7.955-5.256 3.991-3.615 7.126-7.83 10.309-12.116 2.46-3.314 4.497-6.669 6.196-10.416 1.677-3.711 2.34-7.602 1.484-11.586Z"/></svg>