<svg xmlns="http://www.w3.org/2000/svg" width="67" height="67" fill="none"><path fill="#6E6C71" d="M41.914 47.821c-.59 1.31-1.324 2.592-2.203 3.702 7.296-2.456 12.668-9.092 13.259-17.057h-2.597c-3.17 0-5.716 2.527-6.231 5.65-.475 2.88-1.235 5.502-2.228 7.705ZM36.17 34.466c3.318 0 6.032 2.765 5.423 6.023-1.324 7.077-4.468 12.053-8.135 12.053-4.64 0-8.443-7.968-8.78-18.076h11.491Zm8.039-8.159c.485 3.153 3.043 5.716 6.237 5.716H53c-.403-8.181-5.844-15.04-13.289-17.546.88 1.11 1.613 2.393 2.203 3.702 1.041 2.311 1.826 5.083 2.295 8.128Zm-2.519-.248c.556 3.241-2.147 5.964-5.44 5.964H24.664c.23-10.339 4.079-18.565 8.794-18.565 3.761 0 6.971 5.235 8.233 12.6Zm-19.473 5.964c.111-5.284 1.12-10.152 2.785-13.844.59-1.31 1.323-2.592 2.203-3.702-7.445 2.507-12.886 9.365-13.29 17.546h8.302Zm-8.271 2.443c.591 7.965 5.962 14.6 13.258 17.057-.879-1.11-1.613-2.392-2.203-3.702-1.612-3.578-2.61-8.26-2.77-13.355h-8.285Z"/></svg>