<svg xmlns="http://www.w3.org/2000/svg" width="64" height="64" fill="none"><path fill="#6E6C71" d="M53.703 27.465a12.31 12.31 0 0 0-1.085-10.232c-2.765-4.75-8.323-7.194-13.751-6.044A12.704 12.704 0 0 0 29.345 7c-5.548-.012-10.472 3.513-12.179 8.722a12.62 12.62 0 0 0-8.442 6.043 12.472 12.472 0 0 0 1.571 14.772 12.31 12.31 0 0 0 1.085 10.231c2.765 4.75 8.323 7.194 13.751 6.044A12.694 12.694 0 0 0 34.653 57c5.552.014 10.477-3.514 12.184-8.729a12.62 12.62 0 0 0 8.441-6.042 12.472 12.472 0 0 0-1.573-14.767l-.002.003ZM34.656 53.733a9.543 9.543 0 0 1-6.079-2.17c.078-.04.212-.113.3-.166l10.09-5.75c.516-.29.833-.832.83-1.418V30.193l4.264 2.43a.147.147 0 0 1 .082.115v11.624c-.006 5.169-4.248 9.36-9.487 9.37Zm-20.402-8.6a9.225 9.225 0 0 1-1.132-6.277c.074.043.206.123.3.176l10.09 5.75a1.662 1.662 0 0 0 1.657 0l12.319-7.019v4.86a.155.155 0 0 1-.06.13l-10.2 5.81c-4.543 2.582-10.345 1.047-12.972-3.43h-.002ZM11.6 23.402a9.433 9.433 0 0 1 4.942-4.108c0 .086-.005.237-.005.343v11.502a1.616 1.616 0 0 0 .828 1.416l12.318 7.017-4.264 2.43a.153.153 0 0 1-.144.013l-10.201-5.816c-4.534-2.591-6.089-8.314-3.476-12.796l.002-.001Zm35.037 8.045-12.319-7.019L38.582 22a.153.153 0 0 1 .144-.012l10.201 5.81c4.542 2.59 6.098 8.323 3.474 12.804a9.46 9.46 0 0 1-4.94 4.106V32.862a1.613 1.613 0 0 0-.824-1.416h-.001Zm4.243-6.303a14.09 14.09 0 0 0-.299-.177l-10.09-5.75a1.662 1.662 0 0 0-1.658 0l-12.318 7.019v-4.86a.155.155 0 0 1 .06-.13l10.2-5.806c4.543-2.585 10.351-1.046 12.97 3.438a9.262 9.262 0 0 1 1.132 6.266h.004Zm-26.683 8.66-4.267-2.429a.147.147 0 0 1-.082-.115V19.635c.003-5.175 4.258-9.37 9.503-9.366 2.218 0 4.366.769 6.071 2.169-.078.04-.21.114-.3.167l-10.09 5.75c-.516.29-.832.83-.83 1.416l-.006 14.03v.003Zm2.316-4.927L32 25.749l5.487 3.125v6.252L32 38.251l-5.487-3.125v-6.25Z"/></svg>