<svg xmlns="http://www.w3.org/2000/svg" width="64" height="64" fill="none"><path fill="#6E6C71" d="M20.218 27.841c0 .671.071 1.215.197 1.614.144.399.323.834.575 1.306.09.145.126.29.126.417 0 .18-.108.362-.342.544l-1.131.761a.855.855 0 0 1-.467.163c-.18 0-.36-.09-.539-.254a5.598 5.598 0 0 1-.647-.852c-.18-.308-.359-.653-.556-1.07-1.401 1.669-3.161 2.503-5.28 2.503-1.51 0-2.713-.435-3.593-1.306-.88-.87-1.329-2.03-1.329-3.481 0-1.542.54-2.793 1.635-3.736 1.095-.943 2.55-1.414 4.4-1.414.61 0 1.24.054 1.904.145.664.09 1.347.235 2.065.399v-1.324c0-1.378-.287-2.34-.844-2.901-.575-.563-1.545-.835-2.928-.835-.628 0-1.275.073-1.94.236-.664.163-1.31.363-1.939.617a4.89 4.89 0 0 1-.628.235 1.09 1.09 0 0 1-.288.055c-.251 0-.377-.181-.377-.562v-.889c0-.29.036-.508.126-.634.09-.127.251-.254.503-.381.628-.327 1.383-.599 2.263-.816.88-.236 1.814-.345 2.801-.345 2.138 0 3.7.49 4.706 1.47.988.978 1.49 2.465 1.49 4.46v5.875h.037Zm-7.292 2.756a5.77 5.77 0 0 0 1.85-.326c.646-.218 1.22-.617 1.706-1.16.287-.345.503-.726.61-1.161.108-.435.18-.961.18-1.578v-.761a14.869 14.869 0 0 0-1.652-.309 13.393 13.393 0 0 0-1.688-.108c-1.204 0-2.084.235-2.677.725-.592.49-.88 1.179-.88 2.085 0 .852.216 1.487.665 1.922.431.454 1.06.671 1.886.671Zm14.422 1.959c-.324 0-.54-.055-.683-.182-.144-.108-.27-.362-.377-.707l-4.22-14.017c-.108-.362-.162-.598-.162-.725 0-.29.143-.454.43-.454h1.76c.342 0 .576.055.701.182.144.109.252.363.36.707l3.017 12.004 2.802-12.004c.09-.363.197-.598.34-.707.144-.109.396-.181.72-.181h1.436c.341 0 .575.054.718.18.144.11.27.363.342.708l2.837 12.15 3.107-12.15c.108-.363.234-.598.36-.707.143-.109.377-.181.7-.181h1.67c.288 0 .45.144.45.453 0 .09-.019.181-.037.29a2.607 2.607 0 0 1-.125.453l-4.329 14.017c-.108.363-.233.599-.377.707-.144.11-.377.182-.682.182H36.56c-.341 0-.575-.055-.718-.181-.144-.127-.27-.363-.342-.726l-2.783-11.696-2.766 11.678c-.09.363-.198.598-.342.725-.143.127-.395.182-.718.182h-1.544Zm23.078.49c-.934 0-1.868-.11-2.766-.327-.898-.218-1.598-.453-2.065-.725-.288-.164-.485-.345-.557-.508a1.291 1.291 0 0 1-.108-.508v-.925c0-.38.144-.562.413-.562.108 0 .216.018.324.055.108.036.27.108.449.18a9.69 9.69 0 0 0 1.975.636 10.69 10.69 0 0 0 2.137.217c1.132 0 2.012-.2 2.623-.598.61-.4.934-.98.934-1.723 0-.508-.162-.925-.485-1.27-.324-.344-.934-.652-1.814-.942l-2.604-.816c-1.311-.417-2.281-1.034-2.874-1.85-.593-.798-.898-1.686-.898-2.63 0-.76.162-1.432.485-2.012a4.648 4.648 0 0 1 1.293-1.487 5.679 5.679 0 0 1 1.868-.943c.718-.217 1.472-.308 2.263-.308.395 0 .808.018 1.203.073.413.054.79.127 1.167.199.36.09.7.181 1.024.29a3.9 3.9 0 0 1 .755.326c.251.146.43.29.538.454.108.145.162.344.162.598v.852c0 .381-.144.58-.413.58-.144 0-.377-.072-.683-.217-1.023-.471-2.173-.707-3.448-.707-1.024 0-1.832.163-2.389.508-.556.344-.844.87-.844 1.614 0 .507.18.942.54 1.287.358.345 1.023.69 1.975.997l2.55.816c1.293.417 2.227.998 2.784 1.741.557.744.826 1.596.826 2.539 0 .78-.162 1.487-.467 2.103a4.867 4.867 0 0 1-1.311 1.596c-.557.453-1.221.78-1.994 1.015a8.464 8.464 0 0 1-2.568.381Z"/><path fill="#9B999D" fill-rule="evenodd" d="M53.82 41.858c-5.908 4.407-14.493 6.746-21.874 6.746-10.345 0-19.666-3.862-26.707-10.282-.557-.508-.054-1.197.61-.798 7.616 4.461 17.009 7.163 26.725 7.163 6.556 0 13.758-1.378 20.385-4.207.988-.453 1.832.653.862 1.378Z" clip-rule="evenodd"/><path fill="#9B999D" fill-rule="evenodd" d="M56.28 39.03c-.754-.98-4.992-.472-6.914-.236-.575.072-.664-.435-.144-.816 3.377-2.394 8.927-1.705 9.573-.907.647.816-.18 6.42-3.34 9.103-.485.417-.952.2-.737-.345.719-1.795 2.317-5.839 1.563-6.8Z" clip-rule="evenodd"/></svg>