<svg xmlns="http://www.w3.org/2000/svg" width="64" height="64" fill="none"><path fill="#6E6C71" d="M24.24 39.256c-.984-.664-1.665-1.635-2.037-2.917l2.283-.941c.207.79.57 1.401 1.086 1.835.513.434 1.138.648 1.868.648.747 0 1.388-.227 1.924-.68a2.176 2.176 0 0 0 .806-1.734c0-.717-.283-1.303-.848-1.757-.566-.453-1.277-.68-2.125-.68h-1.32v-2.26h1.185c.73 0 1.345-.198 1.845-.593.5-.394.75-.934.75-1.621 0-.612-.224-1.099-.67-1.464-.448-.365-1.014-.55-1.702-.55-.67 0-1.204.179-1.598.537a3.15 3.15 0 0 0-.862 1.32l-2.26-.942c.3-.848.849-1.598 1.655-2.246.806-.648 1.835-.974 3.085-.974.924 0 1.757.178 2.494.536.736.359 1.315.855 1.733 1.487.418.635.625 1.345.625 2.135 0 .806-.194 1.486-.582 2.046a4.017 4.017 0 0 1-1.431 1.286v.134c.747.313 1.355.79 1.835 1.431.477.642.717 1.408.717 2.303s-.227 1.694-.68 2.395c-.455.7-1.083 1.253-1.879 1.654-.8.402-1.697.606-2.694.606-1.154.003-2.22-.33-3.204-.994Zm14.01-11.328-2.493 1.812-1.253-1.901L39 24.596h1.723v15.299H38.25V27.928ZM45.157 57l11.842-11.842-5.921-2.632-5.921 2.632-2.632 5.92L45.157 57Z"/><path fill="#A09EA2" d="m16.21 51.079 2.632 5.92h26.316v-11.84H18.842l-2.631 5.92ZM10.947 7A3.946 3.946 0 0 0 7 10.947v34.21l5.921 2.632 5.921-2.631V18.842h26.316l2.631-5.921L45.158 7h-34.21Z"/><path fill="#6E6C71" d="M7 45.158v7.895A3.946 3.946 0 0 0 10.947 57h7.895V45.158H7Z"/><path fill="#A09EA2" d="M45.158 18.842v26.316H57V18.842l-5.92-2.632-5.922 2.632Z"/><path fill="#6E6C71" d="M57 18.842v-7.895A3.946 3.946 0 0 0 53.053 7h-7.895v11.842H57Z"/></svg>