<svg xmlns="http://www.w3.org/2000/svg" width="134" height="35" fill="none"><path fill="#A0A09F" fill-rule="evenodd" d="M17.75 33.453c7.16 0 13.509-4.728 15.535-11.617-5.635.94-11.71-1.395-15.535-5.538-3.824 4.143-9.9 6.477-15.534 5.538C4.377 28.86 10.59 33.453 17.75 33.453ZM33.958 18.46c0-7.574-4.027-14.519-11.617-16.751.697 4.182-.504 8.744-2.701 12.293 3.631 3.804 9.16 5.747 14.318 4.457Zm-18.235-4.594c-2.251-3.463-3.389-8.03-2.701-12.157C5.493 3.968 1.54 10.951 1.54 18.459c5.135 1.284 10.721-.611 14.183-4.593Zm2.026-2.836c1.08-2.026 1.62-4.323 1.62-6.754 0-1.081-.134-2.162-.404-3.242h-2.432a13.32 13.32 0 0 0-.405 3.242c0 2.431.675 4.728 1.62 6.754Z" clip-rule="evenodd"/><g clip-path="url(#a)"><path fill="#A0A09F" d="M45.34 15.05c0-.97.25-1.826.75-2.569.5-.742 1.19-1.318 2.068-1.727.895-.425 1.925-.637 3.092-.637 1.122 0 2.092.197 2.91.591.834.394 1.478.955 1.933 1.682.47.728.72 1.592.75 2.592h-2.91c-.03-.712-.288-1.265-.773-1.66-.485-.409-1.137-.613-1.955-.613-.895 0-1.614.204-2.16.613-.53.395-.796.94-.796 1.637 0 .591.16 1.061.478 1.41.333.333.848.583 1.546.75l2.614.591c1.425.303 2.486.826 3.183 1.569.697.727 1.046 1.712 1.046 2.955 0 1.016-.25 1.91-.75 2.683-.5.773-1.213 1.372-2.138 1.796-.909.41-1.977.614-3.205.614-1.167 0-2.19-.197-3.07-.591-.878-.41-1.568-.978-2.068-1.705-.485-.728-.743-1.584-.773-2.57h2.91c.015.698.288 1.251.818 1.66.546.394 1.281.591 2.206.591.97 0 1.735-.197 2.296-.59.576-.41.864-.948.864-1.615 0-.576-.152-1.03-.455-1.364-.303-.349-.796-.591-1.478-.727l-2.637-.591c-1.41-.304-2.478-.85-3.206-1.637-.727-.804-1.09-1.85-1.09-3.138Zm13.999 11.981v-11.23h2.774v11.23h-2.774Zm1.364-13.481c-.47 0-.871-.16-1.205-.478a1.683 1.683 0 0 1-.477-1.205c0-.47.159-.864.477-1.182a1.682 1.682 0 0 1 1.205-.477c.47 0 .864.159 1.182.477.334.319.5.713.5 1.182 0 .47-.166.872-.5 1.205a1.606 1.606 0 0 1-1.182.478Zm3.639 7.616c0-1.091.22-2.061.659-2.91a5.23 5.23 0 0 1 1.887-2.046c.803-.5 1.735-.75 2.796-.75.955 0 1.773.212 2.456.636a3.28 3.28 0 0 1 1.432 1.728l-.296.25.228-2.274h2.569v10.663c0 1.243-.243 2.319-.728 3.228a4.874 4.874 0 0 1-2.023 2.114c-.864.5-1.91.75-3.138.75-1.606 0-2.925-.431-3.955-1.295-1.031-.864-1.637-2.046-1.82-3.547h2.774c.091.728.394 1.296.91 1.705.53.41 1.227.614 2.091.614.955 0 1.713-.28 2.274-.841.576-.546.864-1.288.864-2.228v-2.796l.318.295c-.273.713-.773 1.281-1.5 1.705-.728.425-1.57.637-2.524.637-1.06 0-1.986-.243-2.774-.728a4.996 4.996 0 0 1-1.841-2c-.44-.849-.66-1.819-.66-2.91Zm2.796-.068c0 .636.121 1.204.364 1.705.257.485.614.871 1.068 1.16.455.287.985.431 1.592.431.636 0 1.182-.136 1.636-.41.47-.287.826-.674 1.069-1.159.258-.5.386-1.076.386-1.727 0-.652-.12-1.213-.363-1.683a2.667 2.667 0 0 0-1.069-1.136c-.454-.273-1.008-.41-1.66-.41-.62 0-1.159.144-1.614.432a2.708 2.708 0 0 0-1.045 1.137c-.243.485-.364 1.038-.364 1.66Zm14.578 5.933h-2.773v-11.23h2.569l.227 1.455c.349-.561.841-1 1.478-1.32a4.753 4.753 0 0 1 2.114-.476c1.41 0 2.47.416 3.183 1.25.728.834 1.091 1.97 1.091 3.41v6.911h-2.773V20.78c0-.94-.212-1.637-.637-2.091-.424-.47-1-.705-1.728-.705-.864 0-1.538.273-2.023.818-.485.546-.728 1.274-.728 2.183v6.047Zm18.23-11.23h2.774v11.23h-2.569l-.204-1.5c-.334.53-.834.962-1.501 1.296-.667.333-1.38.5-2.137.5-1.288 0-2.296-.41-3.024-1.228-.727-.818-1.091-1.91-1.091-3.274v-7.024h2.774v6.047c0 1.06.204 1.826.614 2.296.409.47 1 .705 1.773.705.879 0 1.53-.258 1.955-.773.424-.53.636-1.326.636-2.387V15.8Zm8.412 11.23h-2.773v-11.23h2.546l.341 2-.318-.273c.227-.545.644-1.023 1.25-1.432.606-.424 1.364-.636 2.274-.636.985 0 1.788.257 2.409.772.637.516 1.076 1.198 1.319 2.047h-.455a3.27 3.27 0 0 1 1.273-2.047c.698-.515 1.539-.772 2.524-.772 1.364 0 2.41.386 3.137 1.159.728.758 1.092 1.78 1.092 3.07v7.342h-2.751v-6.615c0-.804-.205-1.41-.614-1.82-.394-.424-.925-.636-1.592-.636-.424 0-.818.099-1.182.296a2.167 2.167 0 0 0-.841.886c-.212.395-.318.902-.318 1.524v6.365h-2.774v-6.638c0-.788-.197-1.387-.591-1.796-.394-.41-.917-.614-1.569-.614-.439 0-.841.098-1.204.296-.364.181-.652.477-.864.886-.213.394-.319.894-.319 1.5v6.366Zm19.206.273c-.501 0-.933-.174-1.296-.523a1.696 1.696 0 0 1-.546-1.273c0-.5.182-.924.546-1.273a1.768 1.768 0 0 1 1.296-.546c.5 0 .932.182 1.295.546.364.349.546.773.546 1.273 0 .5-.182.925-.546 1.273a1.806 1.806 0 0 1-1.295.523Z"/></g><defs><clipPath id="a"><path fill="#fff" d="M44.968 0h88.871v34.446H44.97z"/></clipPath></defs></svg>