<svg xmlns="http://www.w3.org/2000/svg" width="121" height="35" fill="none"><path fill="#A0A09F" d="M20.485 34.318c19.194-2.742 19.195-31.405 0-34.147 11.537 8.28 11.505 25.863 0 34.147Z"/><path fill="#A0A09F" d="M12.889 33.635c1.195.384 2.39.64 3.67.726 9.92-9.1 9.927-25.177 0-34.276-1.28.129-2.518.385-3.67.726 8.333 9.149 8.33 23.678 0 32.824Z"/><path fill="#A0A09F" d="M8.45 31.5c8.09-7.635 8.168-20.896 0-28.512-9.968 6.645-9.972 21.864 0 28.513Zm45.745-19.532c-1.025 0-1.9.235-2.627.705-.726.47-1.28 1.125-1.665 1.965-.385.826-.577 1.808-.577 2.947 0 1.153.206 2.136.62 2.947.412.798.982 1.403 1.708 1.816.74.413 1.587.619 2.541.619.698 0 1.31-.085 1.837-.256a3.796 3.796 0 0 0 1.367-.79c.37-.357.655-.784.854-1.282.214-.498.32-1.053.32-1.666v-1.366l1.282 1.302h-6.001v-2.413h7.26v8.777h-2.306l-.235-2.52.32.32c-.227.47-.59.89-1.088 1.26a5.65 5.65 0 0 1-1.73.876c-.67.2-1.396.3-2.179.3-1.452 0-2.74-.328-3.865-.983-1.11-.67-1.986-1.602-2.627-2.798-.627-1.196-.94-2.598-.94-4.207 0-1.58.32-2.976.961-4.186a7.302 7.302 0 0 1 2.734-2.883c1.182-.698 2.549-1.046 4.1-1.046 1.196 0 2.278.22 3.247.662.968.427 1.758 1.032 2.37 1.815.627.783 1.011 1.708 1.153 2.776h-2.883c-.242-.925-.726-1.602-1.452-2.029-.726-.441-1.559-.662-2.499-.662Zm16.087 2.713v2.413h-.961c-.954 0-1.701.256-2.242.769-.541.498-.812 1.26-.812 2.285v5.125h-2.605V14.745h2.456l.213 2.178h-.256a2.923 2.923 0 0 1 1.004-1.708c.526-.442 1.21-.662 2.05-.662.185 0 .37.007.555.02.185.015.385.05.598.108Zm4.486 10.87c-1.11 0-1.993-.299-2.648-.897-.64-.612-.961-1.41-.961-2.392 0-.968.334-1.737 1.003-2.306.684-.584 1.652-.926 2.905-1.025l3.16-.257v-.235c0-.484-.092-.868-.277-1.153a1.438 1.438 0 0 0-.747-.64c-.328-.143-.712-.214-1.154-.214-.769 0-1.36.157-1.772.47-.413.299-.62.726-.62 1.281h-2.22c0-.769.192-1.43.576-1.986.399-.57.954-1.011 1.666-1.324.726-.313 1.559-.47 2.498-.47.954 0 1.773.17 2.456.512a3.49 3.49 0 0 1 1.58 1.495c.371.655.556 1.474.556 2.456v6.407h-2.285l-.192-1.559c-.228.541-.67.983-1.324 1.325-.641.341-1.374.512-2.2.512Zm.833-1.965c.811 0 1.452-.227 1.922-.683.484-.456.726-1.09.726-1.9v-.556l-2.2.17c-.811.072-1.388.243-1.73.513a1.218 1.218 0 0 0-.512 1.025c0 .47.156.826.47 1.068.313.242.754.363 1.324.363Zm7.728 6.578v-15.44h2.413l.17 1.601c.314-.612.798-1.082 1.453-1.41a4.592 4.592 0 0 1 2.157-.512c1.011 0 1.88.228 2.606.683a4.66 4.66 0 0 1 1.73 1.901c.412.812.619 1.773.619 2.883 0 1.096-.192 2.072-.577 2.926a4.729 4.729 0 0 1-1.687 2.029c-.726.484-1.616.726-2.67.726-.783 0-1.502-.15-2.157-.448-.64-.3-1.124-.712-1.452-1.24v6.301H83.33Zm2.627-10.166c0 .627.12 1.182.363 1.666.242.484.583.869 1.025 1.153.455.271.982.406 1.58.406.612 0 1.14-.135 1.58-.406a2.716 2.716 0 0 0 1.004-1.153c.228-.484.342-1.04.342-1.666 0-.626-.114-1.181-.342-1.665a2.587 2.587 0 0 0-1.004-1.132c-.44-.285-.968-.428-1.58-.428-.598 0-1.125.136-1.58.406-.442.27-.783.648-1.025 1.132-.242.484-.363 1.047-.363 1.687Zm13.2 5.275h-2.605V9.384h2.627v6.706a3.445 3.445 0 0 1 1.367-1.217c.598-.313 1.281-.47 2.05-.47 1.296 0 2.278.391 2.948 1.175.683.783 1.025 1.85 1.025 3.203v6.492h-2.606V19.4c0-.598-.092-1.089-.278-1.473-.185-.385-.441-.67-.768-.854-.328-.2-.712-.3-1.154-.3-.541 0-1.01.122-1.409.364a2.34 2.34 0 0 0-.897.96c-.2.413-.3.883-.3 1.41v5.766Zm9.352-5.296c0-1.096.242-2.057.726-2.883a5.125 5.125 0 0 1 2.008-1.965c.854-.47 1.822-.705 2.904-.705 1.097 0 2.065.235 2.905.705a5.122 5.122 0 0 1 2.007 1.965c.484.826.726 1.787.726 2.883s-.242 2.064-.726 2.904a5.167 5.167 0 0 1-2.007 1.944c-.84.47-1.808.705-2.905.705-1.082 0-2.05-.235-2.904-.705a5.17 5.17 0 0 1-2.008-1.944c-.484-.84-.726-1.808-.726-2.904Zm2.606 0c0 .64.128 1.203.384 1.687.271.484.627.862 1.068 1.132.456.27.982.406 1.58.406.598 0 1.125-.135 1.581-.406a2.83 2.83 0 0 0 1.068-1.132c.256-.484.384-1.046.384-1.687 0-.655-.128-1.217-.384-1.687a2.832 2.832 0 0 0-1.068-1.132c-.456-.27-.983-.406-1.581-.406s-1.124.135-1.58.406c-.441.27-.797.648-1.068 1.132-.256.47-.384 1.032-.384 1.687Z"/></svg>