<svg xmlns="http://www.w3.org/2000/svg" width="126" height="35" fill="none"><path fill="#A0A09F" fill-rule="evenodd" d="M21.197 0c3.193 0 6.095 1.161 8.417 2.902L13.796 21.913.88 12.19C1.46 5.37 7.265 0 14.376 0" clip-rule="evenodd"/><path fill="#A0A09F" fill-rule="evenodd" d="M14.378 34.248c-8.01 0-13.641-6.67-13.641-14.367L12.49 28.59c1.306 1.016 3.193.725 4.209-.436L33.534 7.836c1.965 3.93 1.451 8.368 1.451 12.626a13.625 13.625 0 0 1-13.641 13.641" clip-rule="evenodd"/><g clip-path="url(#a)"><path fill="#A0A09F" d="M61.096 17.205c0 1.631-.33 3.079-.992 4.343-.661 1.249-1.58 2.226-2.756 2.932-1.176.705-2.535 1.058-4.078 1.058-1.529 0-2.88-.353-4.057-1.058-1.175-.706-2.094-1.683-2.755-2.932-.647-1.25-.97-2.69-.97-4.321 0-1.646.33-3.094.992-4.343.661-1.264 1.572-2.249 2.733-2.954 1.176-.706 2.536-1.058 4.079-1.058 1.543 0 2.895.352 4.056 1.058 1.176.705 2.095 1.683 2.756 2.932.661 1.25.992 2.697.992 4.343Zm-2.954 0c0-1.147-.199-2.139-.596-2.976-.396-.838-.955-1.485-1.675-1.94-.72-.47-1.58-.706-2.58-.706-.984 0-1.844.235-2.578.706-.72.455-1.28 1.102-1.676 1.94-.397.837-.595 1.83-.595 2.976s.198 2.146.595 2.998c.397.838.955 1.484 1.675 1.94.735.456 1.595.683 2.58.683 1 0 1.859-.227 2.58-.683.72-.47 1.278-1.124 1.675-1.962.396-.853.595-1.845.595-2.976Zm5.205 13.117V14.383h2.492l.176 1.653c.323-.632.823-1.117 1.499-1.455a4.74 4.74 0 0 1 2.227-.529c1.043 0 1.94.236 2.69.706a4.81 4.81 0 0 1 1.785 1.962c.426.838.64 1.83.64 2.976 0 1.132-.2 2.138-.596 3.02-.397.882-.977 1.58-1.742 2.095-.75.5-1.668.749-2.755.749-.809 0-1.55-.154-2.227-.463-.661-.309-1.161-.735-1.499-1.279v6.504h-2.69Zm2.712-10.494c0 .647.125 1.22.375 1.72s.602.896 1.058 1.19c.47.28 1.014.42 1.631.42.632 0 1.176-.14 1.632-.42a2.81 2.81 0 0 0 1.036-1.19c.235-.5.353-1.073.353-1.72 0-.646-.118-1.22-.353-1.72a2.67 2.67 0 0 0-1.036-1.168c-.456-.294-1-.44-1.632-.44-.617 0-1.16.139-1.631.418-.456.28-.808.669-1.058 1.169s-.375 1.08-.375 1.741Zm9.75-5.445h6.878v2.249h-6.878v-2.249Zm4.784 10.89h-2.69V10.988h2.69v14.285Zm3.788 0v-10.89h2.69v10.89h-2.69Zm1.323-13.072c-.456 0-.845-.155-1.169-.463a1.631 1.631 0 0 1-.463-1.169c0-.456.155-.838.463-1.146a1.631 1.631 0 0 1 1.169-.463c.455 0 .837.154 1.146.463.323.308.485.69.485 1.146 0 .456-.162.845-.485 1.168a1.55 1.55 0 0 1-1.146.463Zm6.835 13.072h-2.69v-10.89h2.47l.33 1.94-.309-.265c.22-.529.625-.992 1.213-1.388.588-.412 1.323-.618 2.204-.618.956 0 1.735.25 2.337.75.618.5 1.044 1.16 1.279 1.984h-.441a3.17 3.17 0 0 1 1.235-1.984c.676-.5 1.491-.75 2.447-.75 1.322 0 2.336.375 3.042 1.125.705.735 1.058 1.727 1.058 2.976v7.12h-2.667v-6.415c0-.779-.199-1.367-.596-1.763-.382-.412-.896-.618-1.543-.618a2.37 2.37 0 0 0-1.146.287c-.338.191-.61.478-.816.86-.206.382-.308.874-.308 1.477v6.172h-2.69v-6.437c0-.764-.191-1.345-.573-1.741-.382-.397-.89-.596-1.521-.596-.427 0-.816.096-1.169.287-.353.176-.632.463-.838.86-.205.382-.308.867-.308 1.455v6.172Zm20.056.287c-1.146 0-2.058-.309-2.734-.926-.661-.632-.992-1.455-.992-2.469 0-1 .346-1.793 1.036-2.38.706-.603 1.705-.956 2.999-1.06l3.262-.264v-.242c0-.5-.095-.897-.286-1.19a1.488 1.488 0 0 0-.772-.662c-.338-.147-.735-.22-1.19-.22-.794 0-1.404.161-1.83.485-.426.308-.639.75-.639 1.322h-2.293c0-.793.198-1.477.595-2.05.412-.588.985-1.043 1.72-1.367.749-.323 1.609-.485 2.579-.485.985 0 1.83.177 2.535.53a3.606 3.606 0 0 1 1.632 1.543c.382.676.573 1.52.573 2.535v6.613h-2.359l-.198-1.609c-.236.559-.691 1.014-1.367 1.367-.662.353-1.419.529-2.271.529Zm.86-2.028c.838 0 1.499-.235 1.984-.706.5-.47.749-1.124.749-1.962v-.573l-2.27.177c-.838.073-1.433.25-1.786.529a1.256 1.256 0 0 0-.529 1.058c0 .485.162.852.485 1.102.323.25.779.375 1.367.375Zm10.689 1.741h-2.668V8.872h2.668v16.401Z"/></g><defs><clipPath id="a"><path fill="#fff" d="M45.315 0h80v34h-80z"/></clipPath></defs></svg>