<svg width="33" height="33" viewBox="0 0 33 33" fill="none" xmlns="http://www.w3.org/2000/svg">
<path d="M26.917 26.135H25.615V15.458C25.615 12.938 24.23 11.552 21.709 11.552H17.282V10.271C17.8784 10.4196 18.4904 10.4965 19.105 10.5C20.084 10.5 21.063 10.312 22.001 9.938C22.1462 9.87912 22.2704 9.77813 22.3578 9.64804C22.4451 9.51794 22.4915 9.36469 22.491 9.208V6.083C22.491 5.823 22.365 5.583 22.146 5.438C22.0403 5.36623 21.9187 5.3211 21.7918 5.30648C21.6649 5.29185 21.5363 5.30815 21.417 5.354C19.9325 5.94775 18.2765 5.94775 16.792 5.354C16.6727 5.30815 16.5441 5.29185 16.4172 5.30648C16.2902 5.3211 16.1687 5.36623 16.063 5.438C15.9566 5.50853 15.8695 5.60441 15.8094 5.71701C15.7494 5.82961 15.7183 5.95539 15.719 6.083V11.552H11.292C8.77198 11.552 7.38598 12.938 7.38598 15.458V26.135H6.08398C5.87716 26.1366 5.67927 26.2195 5.53311 26.3658C5.38696 26.5122 5.30429 26.7102 5.30298 26.917C5.30298 27.344 5.65698 27.697 6.08398 27.697H26.917C27.1236 27.6957 27.3215 27.6132 27.4678 27.4672C27.6141 27.3213 27.6971 27.1236 27.699 26.917C27.6977 26.71 27.6149 26.5119 27.4685 26.3655C27.3221 26.2191 27.124 26.1363 26.917 26.135ZM11.542 26.135H8.94998V17.281H11.543V26.135H11.542ZM15.709 26.135H13.105V17.281H15.709V26.135ZM19.876 26.135H17.27V17.281H19.875L19.876 26.135ZM24.053 26.135H21.438V17.281H24.053V26.135Z" fill="url(#paint0_radial_298_11)"/>
<defs>
<radialGradient id="paint0_radial_298_11" cx="0" cy="0" r="1" gradientUnits="userSpaceOnUse" gradientTransform="translate(25.599 7.05) rotate(134.999) scale(27.2192 20.5471)">
<stop stop-color="#99C6FF"/>
<stop offset="0.895" stop-color="#0170FF"/>
</radialGradient>
</defs>
</svg>
